<svg id="Layer_1" data-name="Layer 1" xmlns="http://www.w3.org/2000/svg" viewBox="0 0 313.57 122.59"><defs><style>.cls-1{fill:#0074f2;}</style></defs><path class="cls-1" d="M128.49,194.67a8.87,8.87,0,0,1,8.87-8.87h14.95a58.81,58.81,0,1,1-59.24,58.8V194.67a8.87,8.87,0,0,1,8.87-8.87h0a8.87,8.87,0,0,1,8.87,8.87v49.07c0,22.35,17.49,41.26,39.83,41.92a41.07,41.07,0,1,0,1.26-82.12H137.36a8.87,8.87,0,0,1-8.87-8.87Z" transform="translate(-93.07 -185.8)"/><path class="cls-1" d="M250.61,268.72a7.78,7.78,0,0,1-1,10.48q-2.59,2.18-7.24,2.17H228.51V251.71h13.35a10.94,10.94,0,0,1,7.08,2.07,6.88,6.88,0,0,1,2.56,5.62,6.79,6.79,0,0,1-1.38,4.36,7.08,7.08,0,0,1-3.65,2.4A6.9,6.9,0,0,1,250.61,268.72Zm-14.87-5h4.73a4.18,4.18,0,0,0,2.72-.78,2.79,2.79,0,0,0,1-2.3,2.85,2.85,0,0,0-1-2.32,4.07,4.07,0,0,0-2.72-.81h-4.73Zm8.13,11a2.93,2.93,0,0,0,1-2.39,3.05,3.05,0,0,0-1-2.45A4.24,4.24,0,0,0,241,269h-5.24v6.54h5.32A4.28,4.28,0,0,0,243.87,274.72Z" transform="translate(-93.07 -185.8)"/><path class="cls-1" d="M263.45,251.71v17.75a5.9,5.9,0,0,0,1.31,4.1,5,5,0,0,0,3.85,1.43,5.09,5.09,0,0,0,3.89-1.43,5.77,5.77,0,0,0,1.35-4.1V251.71h7.22v17.71a12.52,12.52,0,0,1-1.69,6.71,10.81,10.81,0,0,1-4.54,4.15,14.27,14.27,0,0,1-6.36,1.39,14,14,0,0,1-6.27-1.37,10.28,10.28,0,0,1-4.38-4.14,13.24,13.24,0,0,1-1.6-6.74V251.71Z" transform="translate(-93.07 -185.8)"/><path class="cls-1" d="M293.37,275.8h9.46v5.57H286.14V251.71h7.23Z" transform="translate(-93.07 -185.8)"/><path class="cls-1" d="M313.39,251.71v17.75a5.9,5.9,0,0,0,1.31,4.1,4.94,4.94,0,0,0,3.85,1.43,5.05,5.05,0,0,0,3.88-1.43,5.78,5.78,0,0,0,1.36-4.1V251.71H331v17.71a12.52,12.52,0,0,1-1.69,6.71,10.81,10.81,0,0,1-4.54,4.15,14.27,14.27,0,0,1-6.36,1.39,14,14,0,0,1-6.27-1.37,10.28,10.28,0,0,1-4.38-4.14,13.24,13.24,0,0,1-1.6-6.74V251.71Z" transform="translate(-93.07 -185.8)"/><path class="cls-1" d="M357.42,251.71v5.79h-7.86v23.87h-7.23V257.5h-7.86v-5.79Z" transform="translate(-93.07 -185.8)"/><path class="cls-1" d="M368.27,275.8h9.47v5.57H361.05V251.71h7.22Z" transform="translate(-93.07 -185.8)"/><path class="cls-1" d="M406.64,251.71l-10.27,19.86v9.8h-7.23v-9.8l-10.26-19.86h8.19l5.75,12.43,5.7-12.43Z" transform="translate(-93.07 -185.8)"/><path class="cls-1" d="M234.93,301h-5.06l-.83,2.41h-2.67l4.56-12.7h3l4.56,12.7h-2.69Zm-.69-2-1.84-5.3-1.84,5.3Z" transform="translate(-93.07 -185.8)"/><path class="cls-1" d="M248.64,294.35a4.34,4.34,0,0,1,1.11,3.17v5.9h-2.54v-5.56a2.6,2.6,0,0,0-.6-1.84,2.13,2.13,0,0,0-1.64-.64,2.18,2.18,0,0,0-1.66.64,2.6,2.6,0,0,0-.61,1.84v5.56h-2.54V293.36h2.54v1.25a3.67,3.67,0,0,1,1.3-1,4.17,4.17,0,0,1,1.74-.37A3.84,3.84,0,0,1,248.64,294.35Z" transform="translate(-93.07 -185.8)"/><path class="cls-1" d="M261.8,293.36l-6.23,14.83h-2.71l2.18-5-4-9.81h2.85l2.6,7,2.63-7Z" transform="translate(-93.07 -185.8)"/><path class="cls-1" d="M266.13,295.45v4.87a1,1,0,0,0,.24.73,1.16,1.16,0,0,0,.83.23h1.18v2.14h-1.6c-2.14,0-3.22-1-3.22-3.12v-4.85h-1.2v-2.09h1.2v-2.49h2.57v2.49h2.25v2.09Z" transform="translate(-93.07 -185.8)"/><path class="cls-1" d="M277.92,293.71a3.53,3.53,0,0,1,1.39,1.47,5.12,5.12,0,0,1,.5,2.34v5.9h-2.55v-5.56a2.64,2.64,0,0,0-.59-1.84,2.45,2.45,0,0,0-3.3,0,2.56,2.56,0,0,0-.61,1.84v5.56h-2.55V290h2.55v4.63a3.31,3.31,0,0,1,1.31-1,4.43,4.43,0,0,1,1.81-.37A4.11,4.11,0,0,1,277.92,293.71Z" transform="translate(-93.07 -185.8)"/><path class="cls-1" d="M282.4,291.73a1.47,1.47,0,0,1,0-2.12,1.66,1.66,0,0,1,2.23,0,1.47,1.47,0,0,1,0,2.12,1.66,1.66,0,0,1-2.23,0Zm2.37,1.63v10.06h-2.54V293.36Z" transform="translate(-93.07 -185.8)"/><path class="cls-1" d="M295.76,294.35a4.34,4.34,0,0,1,1.11,3.17v5.9h-2.54v-5.56a2.6,2.6,0,0,0-.6-1.84,2.13,2.13,0,0,0-1.64-.64,2.16,2.16,0,0,0-1.66.64,2.56,2.56,0,0,0-.61,1.84v5.56h-2.54V293.36h2.54v1.25a3.59,3.59,0,0,1,1.3-1,4.14,4.14,0,0,1,1.74-.37A3.87,3.87,0,0,1,295.76,294.35Z" transform="translate(-93.07 -185.8)"/><path class="cls-1" d="M305.21,293.64a3.73,3.73,0,0,1,1.35,1.15v-1.43h2.56V303.5a5.38,5.38,0,0,1-.57,2.5,4.14,4.14,0,0,1-1.68,1.74,5.43,5.43,0,0,1-2.73.65,5.89,5.89,0,0,1-3.52-1,3.73,3.73,0,0,1-1.55-2.73h2.53a1.87,1.87,0,0,0,.86,1.1,3,3,0,0,0,1.61.41,2.5,2.5,0,0,0,1.8-.66,2.69,2.69,0,0,0,.69-2v-1.57a3.87,3.87,0,0,1-1.36,1.19,4.07,4.07,0,0,1-2,.47,4.26,4.26,0,0,1-2.32-.66,4.52,4.52,0,0,1-1.67-1.84,6,6,0,0,1-.61-2.73,5.91,5.91,0,0,1,.61-2.71,4.39,4.39,0,0,1,4-2.46A4.19,4.19,0,0,1,305.21,293.64Zm1,3.16a2.6,2.6,0,0,0-1-1,2.67,2.67,0,0,0-1.33-.35,2.55,2.55,0,0,0-1.3.34,2.65,2.65,0,0,0-1,1,3.29,3.29,0,0,0-.37,1.58,3.39,3.39,0,0,0,.37,1.59,2.68,2.68,0,0,0,1,1,2.46,2.46,0,0,0,1.29.36,2.57,2.57,0,0,0,1.33-.35,2.6,2.6,0,0,0,1-1,3.6,3.6,0,0,0,0-3.18Z" transform="translate(-93.07 -185.8)"/><path class="cls-1" d="M326,290.74,321.73,299v4.41h-2.55V299l-4.3-8.27h2.87l2.73,5.8,2.7-5.8Z" transform="translate(-93.07 -185.8)"/><path class="cls-1" d="M329.34,302.94a4.68,4.68,0,0,1-1.82-1.82,5.42,5.42,0,0,1-.67-2.73,5.36,5.36,0,0,1,.68-2.72,4.77,4.77,0,0,1,1.87-1.83,5.37,5.37,0,0,1,2.63-.65,5.43,5.43,0,0,1,2.64.65,4.74,4.74,0,0,1,1.86,1.83,5.36,5.36,0,0,1,.68,2.72,5.23,5.23,0,0,1-.7,2.73,4.86,4.86,0,0,1-1.89,1.82,5.48,5.48,0,0,1-2.66.65A5.33,5.33,0,0,1,329.34,302.94Zm3.92-1.9a2.55,2.55,0,0,0,1-1,3.45,3.45,0,0,0,.36-1.64,3,3,0,0,0-.75-2.21,2.49,2.49,0,0,0-1.84-.77,2.44,2.44,0,0,0-1.83.77,3.09,3.09,0,0,0-.74,2.21,3.13,3.13,0,0,0,.72,2.21,2.38,2.38,0,0,0,1.81.77A2.7,2.7,0,0,0,333.26,301Z" transform="translate(-93.07 -185.8)"/><path class="cls-1" d="M348.59,293.36v10.06H346v-1.27a3.27,3.27,0,0,1-1.28,1,3.92,3.92,0,0,1-1.71.37,4.17,4.17,0,0,1-2.09-.5,3.44,3.44,0,0,1-1.43-1.47,4.82,4.82,0,0,1-.52-2.32v-5.9h2.55v5.54a2.64,2.64,0,0,0,.59,1.84,2.41,2.41,0,0,0,3.29,0,2.6,2.6,0,0,0,.6-1.84v-5.54Z" transform="translate(-93.07 -185.8)"/><path class="cls-1" d="M364.05,290.74v2.05h-3.38v10.63h-2.55V292.79h-3.37v-2.05Z" transform="translate(-93.07 -185.8)"/><path class="cls-1" d="M373.61,293.71a3.59,3.59,0,0,1,1.39,1.47,5.12,5.12,0,0,1,.5,2.34v5.9H373v-5.56a2.6,2.6,0,0,0-.6-1.84,2.11,2.11,0,0,0-1.63-.64,2.19,2.19,0,0,0-1.67.64,2.6,2.6,0,0,0-.6,1.84v5.56H365.9V290h2.55v4.63a3.35,3.35,0,0,1,1.3-1,4.52,4.52,0,0,1,1.82-.37A4.16,4.16,0,0,1,373.61,293.71Z" transform="translate(-93.07 -185.8)"/><path class="cls-1" d="M378.09,291.73a1.47,1.47,0,0,1,0-2.12,1.52,1.52,0,0,1,1.11-.43,1.54,1.54,0,0,1,1.12.43,1.47,1.47,0,0,1,0,2.12,1.54,1.54,0,0,1-1.12.43A1.52,1.52,0,0,1,378.09,291.73Zm2.37,1.63v10.06h-2.55V293.36Z" transform="translate(-93.07 -185.8)"/><path class="cls-1" d="M391.45,294.35a4.34,4.34,0,0,1,1.11,3.17v5.9H390v-5.56a2.6,2.6,0,0,0-.6-1.84,2.13,2.13,0,0,0-1.64-.64,2.16,2.16,0,0,0-1.66.64,2.56,2.56,0,0,0-.61,1.84v5.56H383V293.36h2.55v1.25a3.59,3.59,0,0,1,1.3-1,4.09,4.09,0,0,1,1.73-.37A3.88,3.88,0,0,1,391.45,294.35Z" transform="translate(-93.07 -185.8)"/><path class="cls-1" d="M400.94,303.42l-3.42-4.28v4.28H395V290h2.54v7.65l3.38-4.27h3.31l-4.44,5.05,4.47,5Z" transform="translate(-93.07 -185.8)"/></svg>